<?xml version="1.0" encoding="utf-8"?>
<!-- Generator: Adobe Illustrator 16.0.0, SVG Export Plug-In . SVG Version: 6.00 Build 0)  -->
<!DOCTYPE svg PUBLIC "-//W3C//DTD SVG 1.1//EN" "http://www.w3.org/Graphics/SVG/1.1/DTD/svg11.dtd">
<svg version="1.1" id="圖層_1" xmlns="http://www.w3.org/2000/svg" xmlns:xlink="http://www.w3.org/1999/xlink" x="0px" y="0px"
	 width="1179.306px" height="553.602px" viewBox="0 0 1179.306 553.602" enable-background="new 0 0 1179.306 553.602"
	 xml:space="preserve">
<g>
	<linearGradient id="SVGID_1_" gradientUnits="userSpaceOnUse" x1="70.6025" y1="387.2383" x2="1160.5449" y2="387.2383">
		<stop  offset="0.1505" style="stop-color:#E60012"/>
		<stop  offset="0.1539" style="stop-color:#E61111"/>
		<stop  offset="0.2473" style="stop-color:#EC9D00"/>
		<stop  offset="0.311" style="stop-color:#F0D600"/>
		<stop  offset="0.3398" style="stop-color:#F0E900"/>
		<stop  offset="0.3474" style="stop-color:#E7E400"/>
		<stop  offset="0.4056" style="stop-color:#A0C316"/>
		<stop  offset="0.4575" style="stop-color:#54A834"/>
		<stop  offset="0.5012" style="stop-color:#00973E"/>
		<stop  offset="0.535" style="stop-color:#008F42"/>
		<stop  offset="0.5548" style="stop-color:#008D43"/>
		<stop  offset="0.7161" style="stop-color:#71C2DE"/>
		<stop  offset="0.8333" style="stop-color:#1F296A"/>
	</linearGradient>
	<path fill-rule="evenodd" clip-rule="evenodd" fill="url(#SVGID_1_)" d="M70.603,357.313c12.548,10.063,26.297,19.153,38.88,29.28
		c7.229,5.817,13.871,12.64,21.36,18.24c14.236,10.646,29.143,20.953,44.64,30.239c50.679,30.371,108.46,50.118,171.36,68.881
		c28.847,8.604,59.958,12.528,90.96,18.72c13.358,1.68,26.721,3.36,40.079,5.04c12.8,1.359,25.603,2.72,38.4,4.079
		c4.08,0.161,8.161,0.32,12.24,0.48c18.965,3.076,42.79,2.401,64.56,2.4c14.662-0.001,30.502,1.426,44.16-0.72
		c7.28-0.24,14.561-0.48,21.84-0.721c9.199-0.64,18.401-1.279,27.601-1.92c24.624-4.038,49.271-4.063,72.96-8.64
		c23.526-4.546,47.351-7.4,69.839-13.44c45.461-12.209,88.521-24.713,128.16-42c73.637-32.112,138.723-73.744,178.801-139.44
		c10.617-17.404,17.709-35.457,22.08-59.52c1.381-7.601,3.057-18.581,1.199-27.36c-4.283-2.365-26.623-0.959-33.84-0.959
		c-24.797,0-49.602,0-74.4,0c-8.125,0-25.725-1.778-31.199,0.72c-0.16,18.878-0.32,37.762-0.48,56.64c3.635,2.835,11.697,2.4,18,2.4
		c13.6,0.079,27.754,0.129,41.352,0.209l-0.072,0.511c-1.324,9.97-20.039,28.919-26.639,35.521
		c-30.119,30.119-67.602,53.682-109.68,71.76c-33.789,14.516-70.428,27.977-109.201,37.92c-23.602,6.053-47.847,9.72-72.479,14.88
		c-27.544,5.771-56.938,5.281-85.92,10.08c-6.719,0.239-13.44,0.479-20.16,0.72c-18.166,2.961-38.541,1.682-59.039,1.68
		c-18.863,0-36.947,1.031-53.761-1.68c-10.175-1.641-20.507-0.4-29.76-1.92c-4.88-0.32-9.761-0.641-14.64-0.96
		c-25.066-4.447-50.352-4.805-74.4-10.08c-42.998-9.432-84.111-18.04-122.4-31.68c-13.118-5.119-26.241-10.241-39.359-15.36
		c-5.92-2.88-11.841-5.76-17.76-8.64L70.603,357.313z"/>
	<g>
		<path fill-rule="evenodd" clip-rule="evenodd" fill="#E60012" d="M242.922,409.393c0-0.08,0-0.159,0-0.24
			c4.288-2.682,11.315-3.26,16.32-4.799c9.4-2.892,18.77-6.97,27.36-11.28c17.826-8.944,32.045-21.862,46.8-33.84
			c13.082-10.621,24.695-28.757,34.08-43.2c2.407-3.705,8.893-20.032,11.28-21.6c1.826,1.316,1.2,21.542,1.2,26.399
			c0.08,18.638,0.16,37.282,0.239,55.92c-0.001,13.597-0.554,24.753,10.561,27.12c4.719,0.16,9.44,0.319,14.159,0.48
			c9.385,1.496,22.035,1.071,26.16-4.32c5.673-7.412,3.602-25.415,3.601-38.16c0-31.517,0-63.043,0-94.561
			c-0.002-24.975,0.173-46.88,19.92-52.079c9.47-2.494,23.234-0.829,27.6,4.32c7.483,8.823,6.242,26.684,6.24,42.959
			c0,31.917,0,63.844,0,95.761c-0.001,10.719-2.119,33.926,2.399,40.08c1.368,1.861,4.171,4.195,6.48,5.039
			c4.851,1.774,31.979,2.188,36.721,0.48c3.041-1.096,6.213-4.268,7.68-6.96c2.713-4.983,1.44-15.237,1.439-22.32
			c-0.08-17.358-0.16-34.722-0.239-52.08c0.239-0.239,0.479-0.479,0.72-0.72c2.639,0.688,8.391,16.482,10.32,19.68
			c8.268,13.701,17.777,28.83,30,38.641c8.874,7.123,18.199,14.637,29.52,19.199c6.867,2.769,14.676,4.313,22.32,6
			c11.196,2.475,24.368-0.234,33.12-2.64c24.676-6.782,48.173-22.375,62.159-39.84c4.219-5.268,7.475-12.46,12.24-17.28
			c0.24,0,0.48,0,0.721,0c3.144,1.893,4.793,6.664,6.959,9.6c4.32,5.52,8.641,11.041,12.961,16.561
			c15.085,18.78,37.061,29.38,66.239,34.32c6.381,1.08,13.723-0.417,18.48-1.44c23.104-4.97,37.998-13.664,53.76-25.44
			c5.211-3.893,11.068-9.089,15.119-14.159c1.387-1.736,2.473-5.276,5.52-4.56c1.434,8.377-0.994,19.601,2.641,25.68
			c1.947,3.254,5.754,5.66,9.84,6.72c8.041,2.085,32.775,1.118,37.201-2.16c7.594-5.626,5.76-21.431,5.76-34.56
			c0.08-18.559,0.16-37.122,0.24-55.68c-0.002-10.506-1.033-22.252,0.959-31.44c2.352-10.848,7.631-19.46,18-22.32
			c12.305-3.394,24.859,2.265,29.76-9.36c1.842-4.366,1.201-9.892,1.201-15.6c-0.004-10.215,0.99-21.521-3.602-27.12
			c-9.646-11.764-40.766-0.617-49.92,3.36c-3.545-0.313-6.598-2.836-10.32-3.6c-6.902-1.416-31.434-0.029-34.799,2.159
			c-7.727,5.025-6.242,16.819-6.24,29.28c0,23.838,0,47.683,0,71.52c-0.24,0.16-0.48,0.32-0.721,0.48
			c-0.398,0.08-0.799,0.16-1.199,0.24c-4.377-4.284-11.75-9.275-18.961-4.08c-5.127,3.695-10.217,19.454-14.158,25.68
			c-7.967,12.584-20.836,21.684-35.041,28.08c-13.166,5.929-37.528,0.602-42.239-8.88c-0.907-2.99,4.627-4.315,6.48-5.521
			c6.878-4.239,13.759-8.479,20.64-12.72c20.477-12.798,40.961-25.601,61.439-38.4c7.441-4.881,17.102-10.082,13.199-23.279
			c-2.078-7.03-10.936-18.734-15.119-24.721c-14.768-21.122-27.502-35.047-52.08-46.56c-4.236-1.983-8.605-1.803-13.439-3.12
			c-10.514-2.864-25.283-2.107-35.28,0.96c-9.366,2.874-18.049,6.374-25.68,11.04c-15.488,9.471-28.349,23.273-36.48,40.08
			c-2.818,5.828-4.425,12.868-6.239,19.44c-0.824,2.981-0.544,5.834-1.921,7.92c-0.399-0.08-0.165-0.75-0.564-0.83
			c-1.108-1.938-1.83-4.376-2.795-6.61c-2.56-4.479-5.12-8.96-7.68-13.439c-18.582-29.312-53.299-72.651-106.32-57.84
			c-9.611,2.685-18.673,6.537-26.4,11.279c-12.67,7.776-23.874,18.555-31.68,31.2c-2.703,4.38-4.215,10.01-7.2,14.16
			c-0.319,0-0.64,0-0.96,0c-0.16-0.08-0.32-0.16-0.479-0.24c-0.974-4.041,0-9.669-0.721-14.16c-1.6-7.279-3.2-14.561-4.8-21.84
			c-5.991-16.683-15.7-25.776-29.04-35.04c-4.66-3.235-10.087-7.044-16.319-8.64c-13.135-3.361-32.48-4.145-45.841-0.48
			c-2.288,0.628-10.406,2.939-11.28,1.681c-0.159-11.679-0.319-23.361-0.479-35.04c-0.08-25.598-0.159-51.203-0.24-76.801
			c-1.731-11.459,2.349-25.371-2.88-32.879c-4.262-6.12-15.523-5.041-25.92-5.041c-7.054,0-14.311-0.488-18.72,2.16
			c-12.13,7.286-3.528,40.697-6.24,58.561c-0.08,12.639-0.159,25.281-0.24,37.92c0,45.755,0,91.524,0,137.279
			c-0.79,0.496-0.963,0.69-2.399,0.721c-8.398-8.736-9.453-24.239-26.641-24.24c-4.05,0-7.697,0.525-10.319,2.16
			c-8.405,5.24-9.786,21.042-13.44,30.96c-6.267,17.008-15.817,31.45-26.16,44.399c-17.235,21.583-43.804,38.066-75.6,44.88
			c-9.878,2.118-24.739,4.312-36.72,2.4c-8.432-1.345-15.216-0.742-22.561-2.64c-36.108-9.33-63.239-31.038-82.08-57.84
			c-7.882-11.213-14.955-26.353-19.2-40.56c-2.031-6.802-3.318-13.773-4.56-21.12c-3.851-22.805-0.148-49.68,6.24-66.48
			c16.509-43.415,40.934-73.106,83.76-90c14.909-5.882,31.564-8.906,52.56-8.88c10.923,0.014,28.09,6.168,35.761,0.72
			c6.62-4.702,9.276-19.504,4.8-29.28c-4.479-6.719-8.961-13.44-13.44-20.159c-2.682-3.881-4.779-9.868-9.6-11.521
			c-16.961-6.374-53.04,0-53.04,0c-5.416,0.383-10.926,2.421-15.6,3.601c-16.838,4.246-32.152,8.663-45.12,16.8
			c-8.198,5.143-16.198,9.283-23.761,14.88C48.779,63.5,23.404,97.707,9.402,143.473c-4.215,13.777-9.157,29.863-9.12,47.04
			c-0.399,0,0.181,1.61-0.22,1.61C0.063,203.002,0,210.901,0,221.779c0.094,0.531,0.156,0.844,0.282,1.373
			c0.258,11.25,2.854,21.68,5.04,30.961c8.618,36.602,21.298,59.948,40.561,85.199c7.302,9.572,15.375,18.908,24.72,26.4
			c12.548,10.063,23.96,19.66,38.88,29.28c7.798,5.028,19.83,10.38,31.08,14.38C140.563,409.373,182.031,423.412,242.922,409.393z
			 M608.923,286.993c-4.059,2.511-9.3,7.849-14.4,8.64c-4.386-3.341-5.005-15.899-3.84-23.04c3.074-18.845,11.982-28.73,27.6-34.8
			c2.32-0.4,4.641-0.8,6.96-1.2c13.518-0.144,19.925,5.462,26.4,12.24c1.776,1.859,6.29,5.093,5.76,8.16
			c-1.57,3.295-11.839,7.702-15.359,9.84C631.003,273.553,619.961,280.273,608.923,286.993z M726.043,291.073
			c-1.072,1.833-4.138,0.146-6.24,0.72c-3.658,0.999-6.765,2.936-8.641,5.76c-2.799,6.08-5.6,12.161-8.399,18.24
			c-8.284,13.791-21.886,26.253-37.921,32.16c-13.748,5.065-35.694,0.729-41.52-8.4c-1.991-3.121,2.615-3.999,4.32-5.04
			c6.319-3.92,12.641-7.84,18.96-11.76c16.638-10.398,33.282-20.801,49.92-31.2c10.392-6.385,20.946-10.493,28.165-20.055
			c0.4,0,0.955-1.064,1.355-1.064C726.043,277.313,726.043,284.193,726.043,291.073z M783.162,295.633
			c-5.025-2.721-4.993-17.42-3.84-24c3.195-18.236,12.368-28.657,28.08-34.079c2-0.32,4-0.641,6-0.961
			c14.892-0.134,21.519,6.336,28.319,14.16c1.717,1.975,3.947,2.866,4.08,6.48c-3.018,3.146-7.445,4.864-11.279,7.2
			c-11.359,6.879-22.722,13.76-34.08,20.64C796.991,287.363,786.934,294.966,783.162,295.633z"/>
		<path fill-rule="evenodd" clip-rule="evenodd" fill="#E60012" d="M290.683,51.793c24.161-0.305,42.425,23.991,32.399,48.72
			c-4.445,10.966-13.285,17.712-26.64,19.921c-24.637,4.073-44.329-25.517-34.319-48.721c3.283-7.612,10.761-14.818,18.72-17.76
			C284.122,53.233,287.402,52.513,290.683,51.793z"/>
		<path fill-rule="evenodd" clip-rule="evenodd" fill="#E60012" d="M333.643,132.434c44.608-0.67,47.533,61.506,7.2,68.399
			c-5.265,0.9-10.089-0.759-13.44-1.92c-15.775-5.467-28.862-21-22.56-43.44c2.618-9.322,10.718-17.578,19.439-20.88
			C327.402,133.873,330.522,133.153,333.643,132.434z"/>
	</g>
</g>
</svg>
