<svg width="140" height="140" viewBox="0 0 24 24" xmlns="http://www.w3.org/2000/svg" fill="#F5A623">
  <path d="M12 2C6.48 2 2 6.48 2 12C2 17.52 6.48 22 12 22C17.52 22 22 17.52 22 12C22 6.48 17.52 2 12 2ZM12 20C7.59 20 4 16.41 4 12C4 7.59 7.59 4 12 4C16.41 4 20 7.59 20 12C20 16.41 16.41 20 12 20ZM12 17.5C14.33 17.5 16.3 16.24 17.11 14.5H6.89C7.7 16.24 9.67 17.5 12 17.5ZM9 11.5C9 12.33 8.33 13 7.5 13C6.67 13 6 12.33 6 11.5C6 10.67 6.67 10 7.5 10C8.33 10 9 10.67 9 11.5ZM18 11.5C18 12.33 17.33 13 16.5 13C15.67 13 15 12.33 15 11.5C15 10.67 15.67 10 16.5 10C17.33 10 18 10.67 18 11.5Z"/>
</svg>